<svg xmlns="http://www.w3.org/2000/svg" xmlns:xlink="http://www.w3.org/1999/xlink" width="2000" zoomAndPan="magnify" viewBox="0 0 1500 1499.999933" height="2000" preserveAspectRatio="xMidYMid meet" version="1.0"><defs><clipPath id="a5ba9a82db"><path d="M 252.597656 32 L 1327.347656 32 L 1327.347656 1469 L 252.597656 1469 Z M 252.597656 32 " clip-rule="nonzero"/></clipPath><clipPath id="3f5761d67f"><path d="M 252.597656 263 L 485 263 L 485 1236 L 252.597656 1236 Z M 252.597656 263 " clip-rule="nonzero"/></clipPath></defs><g clip-path="url(#a5ba9a82db)"><path fill="#212531" d="M 484.445312 1467.21875 L 910.371094 1467.21875 C 1140.210938 1467.21875 1327.054688 1280.375 1327.054688 1050.535156 C 1327.054688 820.695312 1253.523438 779.308594 1142.21875 704.570312 C 1197.265625 633.851562 1230.214844 545.453125 1230.214844 449.015625 C 1230.214844 219.175781 1043.371094 32.332031 813.53125 32.332031 L 252.597656 32.332031 L 484.445312 263.777344 L 813.53125 263.777344 C 915.59375 263.777344 998.769531 346.953125 998.769531 449.015625 C 998.769531 551.078125 915.996094 634.253906 813.53125 634.253906 L 484.445312 634.253906 L 716.292969 866.101562 L 910.773438 866.101562 C 1012.832031 866.101562 1096.007812 949.277344 1096.007812 1051.339844 C 1096.007812 1153.398438 1012.832031 1236.574219 910.773438 1236.574219 L 252.597656 1236.574219 L 484.445312 1468.425781 Z M 484.445312 1467.21875 " fill-opacity="1" fill-rule="nonzero"/></g><g clip-path="url(#3f5761d67f)"><path fill="#212531" d="M 484.445312 633.851562 L 484.445312 495.222656 L 252.597656 263.777344 L 252.597656 1003.925781 L 484.445312 1235.371094 Z M 484.445312 633.851562 " fill-opacity="1" fill-rule="nonzero"/></g></svg>